<svg viewBox="0 0 30 24" fill="none" xmlns="http://www.w3.org/2000/svg">
  <path d="M1 7.8c0-1.68 0-2.52.509-3.162.447-.564 1.161-1.023 2.039-1.311C4.546 3 5.853 3 8.467 3h13.066c2.614 0 3.92 0 4.919.327.878.288 1.592.747 2.04 1.311C29 5.28 29 6.12 29 7.8v8.4c0 1.68 0 2.52-.509 3.162-.447.565-1.161 1.023-2.039 1.311-.998.327-2.305.327-4.919.327H8.467c-2.614 0-3.92 0-4.919-.327-.878-.288-1.592-.746-2.04-1.311C1 18.72 1 17.88 1 16.2V7.8Z" stroke="#D0D5DD" stroke-width="2" stroke-linecap="round" stroke-linejoin="round"/>
  <path d="M8.316 15h-1.7l2.209-6.545h2.106L13.139 15h-1.7l-1.537-4.896H9.85L8.316 15Zm-.227-2.576h3.554v1.202H8.09v-1.202ZM14.744 15V8.455h2.704c.49 0 .913.095 1.269.287.358.19.634.455.827.796.194.339.291.733.291 1.182 0 .452-.099.848-.297 1.186a1.994 1.994 0 0 1-.84.783c-.365.186-.797.278-1.298.278h-1.668v-1.246h1.374c.238 0 .438-.042.597-.125a.856.856 0 0 0 .368-.348c.083-.151.125-.327.125-.527 0-.203-.042-.378-.125-.525a.836.836 0 0 0-.368-.345 1.327 1.327 0 0 0-.597-.121h-.78V15h-1.582Zm8.353-6.545V15h-1.582V8.455h1.582Z" fill="#D0D5DD"/>
</svg>
