<svg viewBox="0 0 444 210" fill="none" xmlns="http://www.w3.org/2000/svg">
  <path d="m278.571 362.881 4.416 1.469 160.994-160.994-60.916-222.279-221.91-61.284L.161 80.787l60.916 222.278 217.494 59.816Zm95.867-191.491L378.261 2.8l52.11 189.156-55.933-20.566Zm-99.167 176.402L120.394 240.071l238.942-57.257-84.065 164.978Zm83.706-175.653-243.728 58.366L180.602-6.236l178.375 178.375Zm-252.926 52.852L19.299 85.188 169.19-5.122l-63.139 230.113Zm84.861-235.653 177.052 3.163-3.457 170.431L190.912-10.662Zm-8.457-10.667-11.373-45.267 174.069 48.074-162.696-2.807Zm-10.309 2.953L27.411 68.249 160.774-65.114l11.372 46.738Zm-70.155 256.254-33.54 51.93L15.606 98.443l86.384 139.435Zm-25.816 58.181 32.804-51.193 143.473 100-176.277-48.807Zm295.678-114.728 58.141 21.3-140.732 140.732 82.591-162.032Z" fill="#fff" fill-opacity=".4" style="mix-blend-mode:color-dodge" opacity=".16"/>
</svg>
